<?xml version="1.0" encoding="UTF-8"?>
<svg id="Camada_1" xmlns="http://www.w3.org/2000/svg" version="1.1" viewBox="0 0 1080 1080">
  <!-- Generator: Adobe Illustrator 30.3.0, SVG Export Plug-In . SVG Version: 2.1.3 Build 182)  -->
  <defs>
    <style>
      .st0 {
        fill: #1c9bd7;
      }
    </style>
  </defs>
  <path class="st0" d="M796.2,161.5c-42.6-28.9-90.3-50.8-141.6-64v81s0,51.2,0,51.2v222.5c0,5.3-1.6,9.3-4.9,12.6-3.3,3.3-7.3,4.9-12.6,4.9h-194.4c-5.3,0-9.4-1.6-12.9-5-3.4-3.3-5-7.3-5-12.5l.5-222.5c-55.8,20.7-104.6,55.9-141.6,101.2v488.5c-75.6-69.3-122.9-168.9-122.9-279.5s47.4-210.2,122.9-279.5c15.3-14.1,31.9-26.9,49.4-38.3,50-32.6,108.2-53.8,170.8-59.7,2.3-.2,6.7-.4,12.2-.6,37.3-1.2,66.9-31.8,66.9-69.1v-7.6c-14.2-1.3-28.6-2.2-43.1-2.2-252.4,0-457,204.6-457,457s79.6,296.2,200.7,378.4c42.6,28.9,90.3,50.8,141.5,64v-81s-.1-51.3-.1-51.3l-.3-221.5c0-5.2,1.7-9.3,5.2-12.7,3.6-3.5,7.7-5.2,12.7-5.2h194.4c5.2,0,9.2,1.6,12.5,5,3.4,3.5,5,7.6,5,12.9v221.7c55.8-20.6,104.5-55.9,141.5-101.1v-418.3c0,0,.1-70.4.1-70.4,75.6,69.3,123,168.9,123,279.5s-47.4,210.3-123.1,279.6c-15.3,14-31.8,26.8-49.2,38.2-53.2,34.7-115.5,56.4-182.6,60.6,0,0-.2,0-.3,0-37.6,2.1-67.2,32.9-67.2,70.5v5.8c14.3,1.4,28.6,2.3,43.3,2.3,252.4,0,457-204.6,457-457s-79.6-296.3-200.8-378.5"/>
</svg>