<?xml version="1.0" encoding="UTF-8"?>
<svg id="Camada_1" xmlns="http://www.w3.org/2000/svg" version="1.1" viewBox="0 0 240 60">
  <!-- Generator: Adobe Illustrator 30.4.0, SVG Export Plug-In . SVG Version: 2.1.4 Build 226)  -->
  <defs>
    <style>
      .st0 {
        fill: #fff;
      }

      .st1 {
        fill: #1c9bd7;
      }
    </style>
  </defs>
  <path class="st0" d="M123.5,21.4c-1.2-1.2-2.7-2.2-4.2-2.9-1.7-.6-3.3-1-5.2-1s-3.5.3-5.3,1c-1.6.6-2.9,1.6-4.2,2.9-1.2,1.2-2.1,2.7-2.9,4.3-.7,1.7-1,3.6-1,5.6s0,3,.3,4c.2.9.4,1.8.7,2.6.6,1.5,1.4,2.7,2.5,3.7,1.2,1.1,2.4,1.9,3.8,2.5,1.4.6,2.9.9,4.5.9h5.1v-6.6h-5.1c-.6,0-1.3-.2-1.9-.4-.6-.3-1.2-.6-1.6-1-.5-.5-.7-.9-.9-1.4s-.3-1.1-.4-2c0-.9,0-1.7,0-2.2,0-1,.2-2,.6-2.9s.8-1.6,1.5-2.2c.6-.6,1.3-1.1,2.1-1.5s1.7-.6,2.6-.6,1.7.2,2.5.6c.8.4,1.6.8,2.1,1.5.6.6,1,1.4,1.4,2.2.4.9.6,1.8.6,2.9v13.8h6.7v-13.8c0-2-.4-3.9-1.1-5.5-.7-1.8-1.7-3.2-2.9-4.4"/>
  <path class="st0" d="M184.9,21.6c-1.6-1.5-3.1-2.6-4.8-3.2s-3.4-1-5.1-1-3.3.4-5,1.1-3,1.8-4.3,3c-1.2,1.3-2.2,2.8-2.9,4.4-.6,1.7-.9,3.3-.9,5.1s.5,3.4,1.2,5.1,1.8,3.1,3.2,4.6c1.4,1.4,2.9,2.4,4.6,3,1.8.6,3.5,1,5.2.9,1.7,0,3.4-.4,5.1-1,1.4-.6,2.6-1.3,3.7-2.3.2,0,.3-.3.4-.4l1.3-1.3-4.8-4.6-1,1c-.6.6-1.4,1.1-2.2,1.4-.8.4-1.7.5-2.5.5s-1.8-.2-2.7-.6c-.8-.4-1.7-.9-2.4-1.6-.7-.7-1.4-1.6-1.8-2.4-.4-.9-.6-1.8-.6-2.6,0-.9,0-1.8.4-2.5.3-.8.7-1.6,1.4-2.2.6-.7,1.4-1.2,2.2-1.6.7-.4,1.6-.5,2.5-.5s1.7.2,2.6.6c.6.3,1.3.6,1.8,1.1l-7.9,4.5,4.7,4.6,7.8-4.3c1.5-.8,2.4-1.8,2.7-2.9s.3-2.2,0-3.1-.9-1.8-2-2.9"/>
  <path class="st0" d="M213.7,25.2c-.6-1.4-1.5-2.7-2.5-3.7-1.1-1.1-2.3-1.9-3.7-2.5-1.4-.6-2.9-.9-4.5-.9h-.4c-1.7,0-3.1.3-4.5.9-1.4.6-2.6,1.4-3.7,2.5s-1.9,2.3-2.5,3.7c-.6,1.4-.9,2.9-.9,4.6v14.9h6.6v-15.4c0-.7,0-1.4.4-1.9.3-.6.6-1.1,1-1.6s1-.8,1.6-1.1c.6-.3,1.2-.4,1.8-.4h.5c.7,0,1.4,0,1.9.4s1.1.6,1.6,1.1.8,1,1,1.6c.3.6.4,1.3.4,1.9v15.4h6.6v-14.8c0-1.7-.3-3.1-.9-4.6"/>
  <path class="st0" d="M158.3,18.6h-8.7c-.5,0-.7-.2-1-.4-.3-.3-.4-.6-.4-1v-7.4h-6.6v23.2c0,1.6.3,3.1.9,4.6.6,1.4,1.5,2.7,2.5,3.7,1,1,2.2,1.8,3.7,2.5,1.4.6,2.9.9,4.5.9h5.1v-6.6h-5.3c-.6,0-1.2-.2-1.8-.4-.6-.3-1.2-.6-1.6-1.1s-.8-.9-1.1-1.6-.4-1.3-.4-1.9v-6.3c0-.5,0-.7.4-1s.6-.4,1-.4h8.7v-6.7h0v-.2Z"/>
  <rect class="st0" x="131.1" y="9.7" width="6.7" height="34.9"/>
  <path class="st0" d="M90.3,9.7v12.5c0,.5-.2.7-.4,1-.3.3-.6.4-1,.4h-11c-.5,0-.7,0-1-.4s-.5-.6-.5-1v-12.5h-7v34.9h7v-12.4c0-.5,0-.7.4-1s.6-.5,1-.5h11c.5,0,.7.2,1,.5.3.3.4.6.4,1v12.4h7V9.7h-7,0Z"/>
  <path class="st1" d="M44.2,4.7c-2.6-1.8-5.4-3-8.5-3.9v21.3c0,.3,0,.6-.3.7s-.5.3-.7.3h-11.7c-.3,0-.6,0-.7-.3s-.3-.5-.3-.7v-13.4c-3.3,1.2-6.3,3.3-8.5,6.1v29.3c-4.5-4.1-7.4-10.1-7.4-16.8s2.9-12.6,7.4-16.8c.9-.8,1.9-1.7,2.9-2.3,2.9-1.9,6.5-3.2,10.2-3.6h.7c2.2,0,4.1-1.9,4.1-4.1V0C30.6,0,29.8,0,28.9,0,13.7,0,1.4,12.3,1.4,27.4s4.8,17.8,12.1,22.8c2.6,1.8,5.4,3,8.5,3.9v-21.2c0-.3,0-.6.3-.7s.5-.3.7-.3h11.7c.3,0,.6,0,.7.3s.3.5.3.7v13.4c3.3-1.2,6.3-3.3,8.5-6.1V10.6c4.5,4.1,7.4,10.1,7.4,16.8s-2.9,12.6-7.4,16.8c-.9.8-1.9,1.6-2.9,2.3-3.2,2.1-6.9,3.4-11,3.6h0c-2.2,0-4.1,2-4.1,4.2v.4c.8,0,1.8,0,2.6,0,15.1,0,27.5-12.3,27.5-27.5s-4.8-17.8-12.1-22.8"/>
  <g>
    <path class="st0" d="M135.9,57.4l2.1-8.1h1.6l2.1,8.1h-1.2l-.5-2h-2.3l-.5,2h-1.2ZM137.8,54.4h1.8l-.6-2.3c0-.4-.2-.8-.2-1.1s-.1-.5-.1-.6c0,.1,0,.3-.1.6s-.1.7-.2,1.1l-.6,2.3Z"/>
    <path class="st0" d="M145.8,57.5c-.5,0-.9-.1-1.2-.4-.3-.3-.4-.7-.4-1.1l.3.3h-.3v1.2h-1.2v-8.1h1.2v3.2s.2,0,.2,0l-.3.3c0-.5.1-.9.4-1.1.3-.3.7-.4,1.2-.4s1.1.2,1.5.6c.4.4.6,1,.6,1.7v1.7c0,.7-.2,1.3-.6,1.7-.4.4-.9.6-1.5.6ZM145.4,56.5c.4,0,.7-.1.9-.3.2-.2.3-.6.3-1v-1.6c0-.4-.1-.8-.3-1-.2-.2-.5-.3-.9-.3s-.7.1-.9.3c-.2.2-.3.6-.3,1v1.6c0,.4.1.7.3,1,.2.2.5.3.9.3Z"/>
    <path class="st0" d="M149.8,57.4v-6.1h1.2v1.2h.3l-.4.7c0-.7.1-1.2.4-1.5.3-.3.7-.5,1.3-.5s1.2.2,1.5.6c.4.4.6,1,.6,1.7v.4h-1.2v-.3c0-.4-.1-.8-.3-1s-.5-.3-.9-.3-.7.1-.9.4c-.2.2-.3.6-.3,1v3.8h-1.2Z"/>
    <path class="st0" d="M158,57.5c-.6,0-1.1-.2-1.5-.5s-.5-.8-.5-1.3.2-1,.6-1.4c.4-.3.9-.5,1.6-.5h1.7v-.6c0-.3-.1-.6-.3-.8-.2-.2-.5-.3-.9-.3s-.6,0-.8.2c-.2.1-.3.3-.4.6h-1.2c0-.5.3-1,.8-1.3s1-.5,1.7-.5,1.3.2,1.7.5c.4.4.6.9.6,1.5v4.2h-1.2v-1.1h-.2l.2-.2c0,.4-.2.8-.5,1.1-.3.3-.8.4-1.3.4ZM158.4,56.6c.4,0,.8-.1,1.1-.3.3-.2.4-.5.4-.8v-.8h-1.7c-.3,0-.6,0-.7.3-.2.2-.3.4-.3.7s.1.6.3.7.5.3.9.3Z"/>
    <path class="st0" d="M165.3,57.5c-.5,0-.9,0-1.3-.3-.4-.2-.7-.5-.9-.8-.2-.4-.3-.8-.3-1.3v-1.6c0-.5.1-.9.3-1.3.2-.4.5-.6.9-.8.4-.2.8-.3,1.3-.3.7,0,1.3.2,1.8.6.4.4.7.9.7,1.6h-1.2c0-.3-.1-.6-.4-.8-.2-.2-.5-.3-.9-.3s-.7.1-1,.3c-.2.2-.4.5-.4,1v1.6c0,.4.1.7.4,1,.2.2.6.3,1,.3s.7,0,.9-.3c.2-.2.3-.5.4-.8h1.2c0,.7-.3,1.2-.7,1.6-.4.4-1,.6-1.8.6ZM164.2,59.7v-.7h.8c.2,0,.3,0,.4-.1.1,0,.2-.2.2-.3,0-.1-.1-.3-.3-.4-.2,0-.5-.1-.9-.1l.4-1h.7l-.2.7c.2,0,.4,0,.6.1.2,0,.4.2.5.3.2.1.2.3.2.5s-.1.5-.4.7c-.3.2-.6.3-1,.3h-1Z"/>
    <path class="st0" d="M171.3,57.5c-.6,0-1.1-.2-1.5-.5s-.5-.8-.5-1.3.2-1,.6-1.4c.4-.3.9-.5,1.6-.5h1.7v-.6c0-.3-.1-.6-.3-.8-.2-.2-.5-.3-.9-.3s-.6,0-.8.2c-.2.1-.3.3-.4.6h-1.2c0-.5.3-1,.8-1.3s1-.5,1.7-.5,1.3.2,1.7.5c.4.4.6.9.6,1.5v4.2h-1.2v-1.1h-.2l.2-.2c0,.4-.2.8-.5,1.1-.3.3-.8.4-1.3.4ZM171.6,56.6c.4,0,.8-.1,1.1-.3.3-.2.4-.5.4-.8v-.8h-1.7c-.3,0-.6,0-.7.3-.2.2-.3.4-.3.7s.1.6.3.7.5.3.9.3Z"/>
    <path class="st0" d="M178.1,57.5c-.6,0-1.1-.2-1.5-.6-.4-.4-.6-1-.6-1.7v-1.7c0-.7.2-1.3.6-1.7.4-.4.9-.6,1.5-.6s.9.1,1.2.4c.3.3.4.7.4,1.1l-.3-.3h.3v-1.4s0-1.7,0-1.7h1.2v8.1h-1.2v-1.2h-.3l.3-.3c0,.5-.1.9-.4,1.1-.3.3-.7.4-1.2.4ZM178.5,56.5c.4,0,.7-.1.9-.3.2-.2.3-.6.3-1v-1.6c0-.4-.1-.7-.3-1-.2-.2-.5-.3-.9-.3s-.7.1-.9.3-.3.6-.3,1v1.6c0,.4.1.8.3,1,.2.2.5.3.9.3Z"/>
    <path class="st0" d="M185.2,57.5c-.5,0-.9,0-1.3-.3s-.7-.5-.9-.8c-.2-.4-.3-.8-.3-1.2v-1.6c0-.5,0-.9.3-1.2s.5-.6.9-.8.8-.3,1.3-.3.9,0,1.3.3.7.5.9.8.3.8.3,1.2v1.1h-3.8v.5c0,.5.1.8.3,1,.2.2.6.4,1,.4s.6,0,.8-.2c.2-.1.3-.3.4-.5h1.2c0,.5-.4.9-.8,1.2-.4.3-1,.5-1.6.5ZM186.5,53.9v-.4c0-.4-.1-.8-.3-1-.2-.2-.5-.4-1-.4s-.7.1-1,.4c-.2.2-.3.6-.3,1v.3h2.7s0,0,0,0Z"/>
    <path class="st0" d="M189.4,57.4v-1.1h2.1v-3.9h-1.9v-1.1h3v5h2v1.1h-5.3ZM192,50.2c-.3,0-.5,0-.6-.2-.2-.1-.2-.3-.2-.5s0-.4.2-.6c.2-.1.4-.2.6-.2s.5,0,.6.2c.2.1.2.3.2.6s0,.4-.2.5c-.2.1-.4.2-.6.2Z"/>
    <path class="st0" d="M196.2,57.4v-6.1h1.2v1.2h.3l-.4.7c0-.7.1-1.2.4-1.5.3-.3.7-.5,1.3-.5s1.2.2,1.5.6c.4.4.6,1,.6,1.7v.4h-1.2v-.3c0-.4-.1-.8-.3-1s-.5-.3-.9-.3-.7.1-.9.4c-.2.2-.3.6-.3,1v3.8h-1.2Z"/>
    <path class="st0" d="M204.5,57.5c-.6,0-1.1-.2-1.5-.5s-.5-.8-.5-1.3.2-1,.6-1.4c.4-.3.9-.5,1.6-.5h1.7v-.6c0-.3-.1-.6-.3-.8-.2-.2-.5-.3-.9-.3s-.6,0-.8.2c-.2.1-.3.3-.4.6h-1.2c0-.5.3-1,.8-1.3s1-.5,1.7-.5,1.3.2,1.7.5c.4.4.6.9.6,1.5v4.2h-1.2v-1.1h-.2l.2-.2c0,.4-.2.8-.5,1.1-.3.3-.8.4-1.3.4ZM204.8,56.6c.4,0,.8-.1,1.1-.3.3-.2.4-.5.4-.8v-.8h-1.7c-.3,0-.6,0-.7.3-.2.2-.3.4-.3.7s.1.6.3.7.5.3.9.3Z"/>
    <path class="st0" d="M211.5,57.5c-.4,0-.8,0-1.1-.2-.3-.1-.6-.3-.8-.6-.2-.2-.3-.5-.3-.9h1.2c0,.2.1.4.3.5.2.1.4.2.7.2h.5c.4,0,.6,0,.8-.2.2-.1.3-.3.3-.6s0-.4-.2-.6c-.2-.1-.4-.2-.7-.3h-.8c-.6-.2-1.1-.4-1.4-.7-.3-.3-.5-.7-.5-1.2s.2-1,.5-1.3c.4-.3.9-.5,1.6-.5h.4c.6,0,1.1.1,1.5.4.4.3.6.7.6,1.2h-1.2c0-.2-.1-.3-.3-.4-.2-.1-.4-.2-.7-.2h-.4c-.3,0-.6,0-.8.2s-.2.3-.2.6,0,.4.2.5c.1.1.4.2.7.2h.8c.7.2,1.2.4,1.5.7.3.3.5.7.5,1.2s-.2,1-.6,1.4c-.4.3-.9.5-1.7.5h-.5Z"/>
  </g>
  <path class="st0" d="M211.6,13.2c-.6,0-1.1-.1-1.5-.3-.4-.2-.8-.5-1-.9-.2-.4-.4-.9-.4-1.4v-1.7c0-.5.1-1,.4-1.4.2-.4.6-.7,1-.9.4-.2.9-.3,1.5-.3s1.1.1,1.5.3c.4.2.7.5,1,.9.2.4.4.9.4,1.4v1.7c0,.5-.1,1-.4,1.4-.2.4-.6.7-1,.9-.4.2-.9.3-1.5.3ZM211.6,12.7c.4,0,.8,0,1.2-.3s.6-.4.8-.7c.2-.3.3-.7.3-1.1v-1.7c0-.4,0-.8-.3-1.1-.2-.3-.4-.6-.8-.7-.3-.2-.7-.3-1.2-.3s-.8,0-1.2.3c-.3.2-.6.4-.8.7-.2.3-.3.7-.3,1.1v1.7c0,.4,0,.8.3,1.1.2.3.4.6.8.7.3.2.7.3,1.2.3ZM210.3,11.7v-3.9h1.3c.4,0,.7.1,1,.3s.4.5.4.9-.1.6-.4.9c-.2.2-.6.3-1,.3h-.6v1.5h-.7ZM211.1,9.5h.6c.2,0,.3,0,.4-.2.1-.1.2-.2.2-.4s0-.3-.2-.4c-.1-.1-.2-.2-.4-.2h-.6v1.2ZM212.2,11.7l-.7-1.7h.7l.7,1.7h-.8Z"/>
</svg>