<?xml version="1.0" encoding="UTF-8"?>
<svg id="Camada_1" xmlns="http://www.w3.org/2000/svg" version="1.1" viewBox="0 0 240 60">
  <!-- Generator: Adobe Illustrator 30.4.0, SVG Export Plug-In . SVG Version: 2.1.4 Build 226)  -->
  <defs>
    <style>
      .st0 {
        fill: #fff;
      }

      .st1 {
        fill: #1c9bd7;
      }
    </style>
  </defs>
  <path class="st0" d="M133.9,23.5c-1.3-1.3-2.9-2.4-4.6-3.1-1.8-.7-3.6-1.1-5.6-1.1s-3.8.3-5.7,1.1c-1.7.7-3.2,1.7-4.6,3.1-1.3,1.3-2.3,2.9-3.1,4.7-.8,1.8-1.1,3.9-1.1,6.1s0,3.3.3,4.3c.2,1,.4,1.9.8,2.8.6,1.6,1.5,2.9,2.7,4,1.3,1.2,2.6,2.1,4.1,2.7,1.5.7,3.1,1,4.9,1h5.5v-7.2h-5.5c-.7,0-1.4-.2-2.1-.4-.7-.3-1.3-.7-1.7-1.1-.5-.5-.8-1-1-1.5s-.3-1.2-.4-2.2c0-1-.1-1.8-.1-2.4,0-1.1.2-2.2.6-3.1.4-.9.9-1.7,1.6-2.4.6-.7,1.4-1.2,2.3-1.6.9-.4,1.8-.6,2.8-.6,1,0,1.8.2,2.7.6.9.4,1.7.9,2.3,1.6.6.7,1.1,1.5,1.5,2.4.4,1,.6,2,.6,3.1v15h7.3v-15c0-2.2-.4-4.2-1.2-6-.8-1.9-1.8-3.5-3.1-4.8"/>
  <path class="st0" d="M200.5,23.7c-1.7-1.6-3.4-2.8-5.2-3.5-1.8-.7-3.7-1.1-5.5-1.1s-3.6.4-5.4,1.2-3.3,1.9-4.7,3.3c-1.3,1.4-2.4,3-3.1,4.8-.7,1.8-1,3.6-1,5.5,0,1.9.5,3.7,1.3,5.5.8,1.8,1.9,3.4,3.5,5,1.5,1.5,3.2,2.6,5,3.3,1.9.7,3.8,1.1,5.6,1,1.8,0,3.7-.4,5.5-1.1,1.5-.6,2.8-1.4,4-2.5.2-.1.3-.3.4-.4l1.4-1.4-5.2-5s-1.1,1.1-1.1,1.1c-.7.7-1.5,1.2-2.4,1.5-.9.4-1.8.5-2.7.5-1,0-1.9-.2-2.9-.6-.9-.4-1.8-1-2.6-1.7-.8-.8-1.5-1.7-1.9-2.6-.4-1-.6-1.9-.7-2.8,0-1,.1-1.9.4-2.7.3-.9.8-1.7,1.5-2.4.7-.8,1.5-1.3,2.4-1.7.8-.4,1.7-.5,2.7-.5s1.8.2,2.8.6c.7.3,1.4.7,2,1.2l-8.6,4.9,5.1,5,8.5-4.7c1.6-.9,2.6-1.9,2.9-3.2s.3-2.4,0-3.4c-.3-1-1-2-2.2-3.2"/>
  <path class="st0" d="M231.7,27.6c-.7-1.5-1.6-2.9-2.7-4-1.2-1.2-2.5-2.1-4-2.7-1.5-.7-3.1-1-4.9-1h-.4c-1.8,0-3.4.3-4.9,1-1.5.6-2.8,1.5-4,2.7-1.2,1.2-2.1,2.5-2.7,4-.7,1.5-1,3.2-1,5v16.2h7.2v-16.7c0-.8.1-1.5.4-2.1.3-.7.7-1.2,1.1-1.7s1.1-.9,1.7-1.2c.6-.3,1.3-.4,2-.4h.5c.8,0,1.5.1,2.1.4.6.3,1.2.7,1.7,1.2s.9,1.1,1.1,1.7c.3.7.4,1.4.4,2.1v16.7h7.2v-16.1c0-1.8-.3-3.4-1-5"/>
  <path class="st0" d="M171.6,20.5h-9.4c-.5,0-.8-.2-1.1-.4-.3-.3-.4-.7-.4-1.1v-8h-7.2v25.2c0,1.7.3,3.4,1,5,.7,1.5,1.6,2.9,2.7,4,1.1,1.1,2.4,2,4,2.7,1.5.7,3.2,1,4.9,1h5.5v-7.2h-5.7c-.7,0-1.3-.2-1.9-.4-.7-.3-1.3-.7-1.7-1.2s-.9-1-1.2-1.7c-.3-.7-.4-1.4-.4-2.1v-6.8c0-.5.1-.8.4-1.1s.7-.4,1.1-.4h9.4v-7.3h0Z"/>
  <rect class="st0" x="142.1" y="10.8" width="7.3" height="37.9"/>
  <path class="st0" d="M97.9,10.8v13.6c0,.5-.2.8-.4,1.1-.3.3-.7.4-1.1.4h-11.9c-.5,0-.8-.1-1.1-.4s-.5-.7-.5-1.1v-13.6s-7.6,0-7.6,0v37.9h7.6v-13.5c0-.5.1-.8.4-1.1s.7-.5,1.1-.5h11.9c.5,0,.8.2,1.1.5.3.3.4.7.4,1.1v13.5h7.6V10.8h-7.6Z"/>
  <path class="st1" d="M47.8,5.4c-2.8-1.9-5.9-3.3-9.2-4.2v23.1c0,.3-.1.6-.3.8s-.5.3-.8.3h-12.7c-.3,0-.6-.1-.8-.3s-.3-.5-.3-.8v-14.5c-3.6,1.3-6.8,3.6-9.2,6.6v31.8c-4.9-4.5-8-11-8-18.2s3.1-13.7,8-18.2c1-.9,2.1-1.8,3.2-2.5,3.2-2.1,7.1-3.5,11.1-3.9.1,0,.4,0,.8,0,2.4,0,4.4-2.1,4.4-4.5V.4c-.9,0-1.8-.1-2.8-.1C14.7.2,1.4,13.6,1.4,30s5.2,19.3,13.1,24.7c2.8,1.9,5.9,3.3,9.2,4.2v-23c0-.3,0-.6.3-.8s.5-.3.8-.3h12.7c.3,0,.6.1.8.3s.3.5.3.8v14.5c3.6-1.3,6.8-3.6,9.2-6.6V11.8c4.9,4.5,8,11,8,18.2s-3.1,13.7-8,18.2c-1,.9-2.1,1.7-3.2,2.5-3.5,2.3-7.5,3.7-11.9,3.9h0c-2.4.1-4.4,2.2-4.4,4.6v.4c.9,0,1.9.1,2.8.1,16.4,0,29.8-13.3,29.8-29.8s-5.2-19.3-13.1-24.7"/>
</svg>