<?xml version="1.0" encoding="UTF-8"?>
<svg id="Camada_1" xmlns="http://www.w3.org/2000/svg" version="1.1" viewBox="0 0 1080 1080">
  <!-- Generator: Adobe Illustrator 30.3.0, SVG Export Plug-In . SVG Version: 2.1.3 Build 182)  -->
  <defs>
    <style>
      .st0 {
        fill: #fff;
      }
    </style>
  </defs>
  <path class="st0" d="M600.3,507.8c-4.8-4.8-10.2-8.4-16.4-11-6.3-2.5-13-3.9-20-4-7-.1-13.7,1.1-20.2,3.8-6.1,2.5-11.6,6.2-16.4,11.1-4.6,4.6-8.2,10.2-11,16.8-2.7,6.6-4.1,13.8-4.1,21.8s.3,11.9,1,15.5c.6,3.6,1.6,6.9,2.8,9.9,2.3,5.7,5.5,10.5,9.6,14.3,4.6,4.2,9.4,7.4,14.5,9.7,5.4,2.4,11.2,3.6,17.5,3.6h19.6v-25.6h-19.6c-2.5,0-5.1-.6-7.6-1.6-2.6-1.1-4.7-2.5-6.2-4.1-1.8-1.8-3-3.5-3.7-5.2-.7-1.7-1.2-4.3-1.5-7.9-.3-3.6-.4-6.4-.4-8.5,0-4.1.7-7.7,2.1-11,1.3-3.2,3.2-6.1,5.6-8.7,2.3-2.4,5-4.3,8.1-5.7,3.2-1.5,6.6-2.2,10-2.1,3.4,0,6.6.8,9.8,2.1,3.2,1.4,6,3.3,8.3,5.7,2.3,2.5,4.1,5.4,5.4,8.7,1.3,3.4,2,7,2,11v53.5h26.1v-53.5c0-7.8-1.4-15-4.2-21.5-2.8-6.7-6.5-12.4-11.1-17"/>
  <path class="st0" d="M838.3,508.6c-5.9-5.7-12.2-9.9-18.7-12.4-6.6-2.6-13.2-3.9-19.8-3.8-6.6.1-13,1.5-19.2,4.2-6.2,2.7-11.8,6.7-16.8,11.9-4.8,5-8.5,10.8-11,17.3-2.4,6.4-3.6,12.8-3.4,19.5.2,6.7,1.7,13.3,4.6,19.8,2.7,6.4,6.8,12.3,12.5,17.7,5.5,5.3,11.5,9.2,17.9,11.7,6.7,2.6,13.4,3.8,19.9,3.7,6.6,0,13.1-1.3,19.5-4,5.2-2.1,10-5.1,14.4-9,.6-.5,1.1-1,1.6-1.5l4.9-5.1-18.6-17.8s-3.8,3.8-4,4.1c-2.4,2.4-5.2,4.3-8.4,5.5-3.2,1.3-6.4,1.9-9.7,1.8-3.4,0-6.8-.7-10.2-2.1-3.3-1.3-6.4-3.4-9.2-6.1-3-2.9-5.2-5.9-6.8-9.3-1.5-3.4-2.3-6.8-2.4-10-.1-3.4.4-6.7,1.6-9.7,1.2-3.1,3-5.9,5.4-8.4,2.6-2.7,5.4-4.6,8.4-5.9,3-1.3,6.2-1.9,9.6-1.9,3.2,0,6.6.6,10.1,2,2.5,1.1,4.9,2.5,7.1,4.2l-30.6,17.4,18.2,17.8,30.5-16.8c5.7-3.1,9.2-6.9,10.3-11.4,1.1-4.5,1.2-8.5,0-12-1.1-3.5-3.7-7.3-7.8-11.4"/>
  <path class="st0" d="M949.5,522.6c-2.4-5.5-5.6-10.3-9.6-14.4-4.3-4.3-9.1-7.5-14.4-9.7-5.3-2.4-11.2-3.5-17.5-3.5h-1.6c-6.3,0-12.2,1.2-17.6,3.5-5.3,2.2-10.1,5.5-14.3,9.7-4.2,4.3-7.4,9.1-9.7,14.4-2.4,5.5-3.5,11.4-3.5,17.7v57.7h25.7v-59.6c0-2.7.5-5.2,1.5-7.5,1-2.4,2.4-4.4,4.1-6.1,1.7-1.7,3.8-3.1,6.2-4.2,2.3-1,4.7-1.5,7.3-1.5h1.9c2.8,0,5.3.5,7.4,1.5,2.3,1,4.4,2.4,6.2,4.2,1.7,1.7,3.1,3.8,4.1,6.1,1,2.4,1.5,4.9,1.5,7.5v59.5h25.8v-57.6c0-6.4-1.2-12.3-3.5-17.7"/>
  <path class="st0" d="M735,497.2h-33.4c-1.7,0-3-.6-4.1-1.6-1.1-1.1-1.6-2.4-1.6-4.1v-28.6h-25.7v90.1c0,6.2,1.2,12.1,3.6,17.7,2.4,5.5,5.6,10.2,9.7,14.3,3.8,3.9,8.6,7.2,14.3,9.7,5.5,2.4,11.4,3.5,17.6,3.5h19.7v-25.7h-20.4c-2.4,0-4.7-.6-6.8-1.5-2.5-1.2-4.6-2.6-6.2-4.2-1.7-1.7-3.1-3.7-4.2-6.2-1-2.4-1.5-5-1.5-7.6v-24.2c0-1.7.5-3,1.6-4.1,1.1-1.1,2.4-1.6,4.1-1.6h33.4v-25.7Z"/>
  <rect class="st0" x="629.8" y="462.7" width="26.1" height="135.4"/>
  <path class="st0" d="M471.7,462.7v48.5c0,1.7-.6,3-1.6,4.1-1.1,1.1-2.4,1.6-4.1,1.6h-42.6c-1.7,0-3-.5-4.1-1.6-1.1-1.1-1.7-2.4-1.7-4.1v-48.5c.1,0-27.1,0-27.1,0v135.4h27.2v-48.3c-.1-1.7.5-3,1.6-4.1,1.1-1.1,2.5-1.7,4.1-1.7h42.6c1.7,0,3,.6,4.1,1.7,1.1,1.1,1.6,2.5,1.6,4.1v48.3s27.2,0,27.2,0v-135.4s-27.2,0-27.2,0Z"/>
  <path class="st0" d="M293,443.2c-9.9-6.7-21-11.8-32.9-14.9v18.8s0,11.9,0,11.9v51.8c0,1.2-.4,2.2-1.1,2.9-.8.8-1.7,1.1-2.9,1.1h-45.2c-1.2,0-2.2-.4-3-1.2-.8-.8-1.2-1.7-1.2-2.9v-51.8c-12.9,4.8-24.2,13-32.8,23.6v113.7c-17.6-16.1-28.6-39.3-28.6-65s11-48.9,28.6-65c3.6-3.3,7.4-6.3,11.5-8.9,11.6-7.6,25.2-12.5,39.8-13.9.5,0,1.5,0,2.8-.1,8.7-.3,15.6-7.4,15.6-16.1v-1.8c-3.3-.3-6.6-.5-10-.5-58.7,0-106.4,47.6-106.4,106.4s18.5,68.9,46.7,88.1c9.9,6.7,21,11.8,32.9,14.9v-18.8s0-11.9,0-11.9v-51.6c0-1.2.3-2.2,1.1-3,.8-.8,1.8-1.2,3-1.2h45.2c1.2,0,2.1.4,2.9,1.2.8.8,1.2,1.8,1.2,3v51.6c13-4.8,24.3-13,32.9-23.5v-97.4s0-16.4,0-16.4c17.6,16.1,28.6,39.3,28.6,65.1s-11,48.9-28.7,65.1c-3.6,3.3-7.4,6.2-11.5,8.9-12.4,8.1-26.9,13.1-42.5,14.1,0,0,0,0,0,0-8.7.5-15.6,7.7-15.6,16.4v1.3c3.3.3,6.7.5,10.1.5,58.7,0,106.4-47.6,106.4-106.4s-18.5-69-46.7-88.1"/>
</svg>